<svg width="64" height="72" viewBox="0 0 64 72" fill="none" xmlns="http://www.w3.org/2000/svg">
<path d="M64 18.271V43.694C64 53.7844 55.5565 61.9651 45.1421 61.9651H43.2347L33.4941 71.3963C33.1127 71.7659 32.5849 72 32 72C31.4596 72 30.97 71.809 30.5949 71.4887L30.4296 71.3285L30.4232 71.3224L20.7653 61.9651H18.8516C8.44347 61.9651 0 53.7844 0 43.694V18.271C0 8.1807 8.44347 0 18.8579 0H45.1421C55.5565 0 64 8.1807 64 18.271Z" fill="#FFD666"/>
<path d="M15.2697 36.219C13.4131 36.219 12.355 38.2687 13.4322 39.7487C17.6205 45.5139 24.5462 49.2728 32.3717 49.2728C40.1972 49.2728 47.1166 45.5077 51.3049 39.7487C52.3821 38.2687 51.3239 36.219 49.4674 36.219H15.2697Z" fill="white"/>
<path d="M26.1432 27.4937H14.9404V22.0196C14.9404 18.9976 17.4497 16.5454 20.5418 16.5454C23.634 16.5454 26.1432 18.9976 26.1432 22.0196V27.4937Z" fill="white"/>
<path d="M49.803 27.4937H38.6002V22.0196C38.6002 18.9976 41.1094 16.5454 44.2016 16.5454C47.2937 16.5454 49.803 18.9976 49.803 22.0196V27.4937Z" fill="white"/>
</svg>
